<svg width="90" height="94" viewBox="0 0 90 94" fill="none" xmlns="http://www.w3.org/2000/svg">
<path d="M48.7145 0.522884C51.4144 -0.503281 54.4581 0.00535603 56.6774 1.85394L86.5914 26.7729C88.7756 28.5925 89.8298 31.4348 89.361 34.2387L82.8551 73.1557C82.3863 75.9598 80.4638 78.3048 77.8063 79.3149L41.4137 93.1469C38.7139 94.173 35.671 93.6643 33.4518 91.8159L3.53774 66.8979C1.35334 65.0783 0.298486 62.2361 0.767231 59.4321L7.27407 20.5141C7.74297 17.7102 9.66457 15.366 12.3219 14.3559L48.7145 0.522884ZM42.0846 22.1264L38.9284 40.31H26.485L24.0924 54.1391H36.528L33.2799 72.8491H47.5875L50.8356 54.1391H63.0436L65.484 40.31H53.236L56.3922 22.1264H42.0846Z" fill="#1E66B3"/>
</svg>
