<svg width="99" height="110" viewBox="0 0 99 110" fill="none" xmlns="http://www.w3.org/2000/svg">
<path d="M52.7145 8.52313C55.4144 7.49693 58.4579 8.00576 60.6771 9.85438L90.591 34.7725C92.7755 36.5921 93.8301 39.4344 93.3613 42.2385L86.8547 81.156C86.3859 83.9601 84.4641 86.3047 81.8065 87.3148L45.414 101.147C42.7141 102.173 39.6707 101.665 37.4514 99.816L7.53754 74.8979C5.3531 73.0783 4.29849 70.236 4.7673 67.4319L11.2739 28.5144C11.7427 25.7103 13.6645 23.3657 16.322 22.3556L52.7145 8.52313Z" fill="#1E66B3"/>
<path d="M69.4845 48.3098L67.0441 62.1389H28.0929L30.4855 48.3098H69.4845ZM60.3927 30.1262L51.588 80.8489H37.2804L46.0851 30.1262H60.3927Z" fill="#FFEEDF"/>
</svg>
