<svg width="418" height="94" viewBox="0 0 418 94" fill="none" xmlns="http://www.w3.org/2000/svg">
<path d="M376.714 0.522884C379.414 -0.503281 382.458 0.00535603 384.677 1.85394L414.591 26.7729C416.776 28.5925 417.83 31.4348 417.361 34.2387L410.855 73.1557C410.386 75.9598 408.464 78.3048 405.806 79.3149L369.414 93.1469C366.714 94.173 363.671 93.6643 361.452 91.8159L331.538 66.8979C329.353 65.0783 328.298 62.2361 328.767 59.4321L335.274 20.5141C335.743 17.7102 337.665 15.366 340.322 14.3559L376.714 0.522884ZM370.085 22.1264L366.928 40.31H354.485L352.092 54.1391H364.528L361.28 72.8491H375.588L378.836 54.1391H391.044L393.484 40.31H381.236L384.392 22.1264H370.085Z" fill="#1E66B3"/>
<path d="M23.4424 59.9844L27.0312 37.0157C27.0951 36.1863 27.1748 35.3728 27.2705 34.5753C27.3981 33.7458 27.3024 33.044 26.9834 32.4698C26.6963 31.8637 25.9785 31.5766 24.8301 31.6085C23.7135 31.5766 22.916 31.8477 22.4375 32.4219C21.9909 32.9643 21.7038 33.6661 21.5762 34.5274C21.4805 35.3887 21.3529 36.2501 21.1934 37.1114L5.83301 37.2071C5.96061 34.4636 6.59863 32.0232 7.74707 29.8858C8.92741 27.7484 10.4746 25.962 12.3887 24.5264C14.3027 23.0909 16.4561 22.0062 18.8486 21.2725C21.2731 20.5388 23.7933 20.2038 26.4092 20.2676C29.8226 20.2995 32.8053 21.0014 35.3574 22.3731C37.9095 23.713 39.8236 25.6589 41.0996 28.211C42.3757 30.7631 42.8382 33.7937 42.4873 37.3028L38.8506 59.9844C38.5635 61.9623 38.3561 63.988 38.2285 66.0616C38.1328 68.1352 38.3402 70.1449 38.8506 72.0909L38.8027 73.0001L23.9209 73.0479C23.251 70.9743 22.916 68.821 22.916 66.588C22.9479 64.3549 23.1234 62.1537 23.4424 59.9844ZM28.4189 41.3702L26.9834 49.9835L23.7295 49.9356C22.5492 49.9675 21.5283 50.2387 20.667 50.7491C19.8057 51.2276 19.0879 51.8656 18.5137 52.6631C17.9714 53.4288 17.5407 54.3061 17.2217 55.295C16.9027 56.2839 16.6794 57.3207 16.5518 58.4053C16.4242 59.1072 16.3285 59.793 16.2646 60.463C16.2327 61.101 16.3444 61.6433 16.5996 62.0899C16.8548 62.5046 17.445 62.712 18.3701 62.712C19.3271 62.712 20.2044 62.4887 21.002 62.0421C21.7995 61.5954 22.4694 61.0212 23.0117 60.3194C23.554 59.6176 23.889 58.82 24.0166 57.9268L24.9258 64.4346C24.3197 65.6469 23.7135 66.8272 23.1074 67.9756C22.5013 69.1241 21.8154 70.1609 21.0498 71.086C20.2842 72.0111 19.3431 72.7289 18.2266 73.2393C17.1419 73.7816 15.7702 74.0528 14.1113 74.0528C11.2721 74.0528 8.83171 73.3669 6.79004 71.9952C4.78027 70.6234 3.26497 68.821 2.24414 66.588C1.25521 64.3549 0.808594 61.8506 0.904297 59.0753C1 55.9171 1.70182 53.2055 3.00977 50.9405C4.34961 48.6755 6.10417 46.8412 8.27344 45.4376C10.4427 44.0339 12.8512 42.9971 15.499 42.3272C18.1468 41.6573 20.9062 41.3223 23.7773 41.3223L28.4189 41.3702ZM74.5861 61.6592C76.0536 61.723 77.1382 61.42 77.84 60.7501C78.5738 60.0482 79.0682 59.155 79.3234 58.0704C79.6105 56.9538 79.786 55.7735 79.8498 54.5294L94.1574 54.4815C93.9979 58.3415 93.0568 61.7549 91.3342 64.7217C89.6434 67.6885 87.3146 70.0014 84.3479 71.6602C81.413 73.3191 77.9836 74.1006 74.0598 74.0049C70.4868 73.9411 67.5041 73.2393 65.1115 71.8995C62.7508 70.5277 60.9006 68.7094 59.5607 66.4444C58.2528 64.1794 57.3755 61.6114 56.9289 58.7403C56.5142 55.8373 56.4823 52.7748 56.8332 49.5528L57.551 44.6241C57.9657 41.3064 58.7154 38.1482 59.8 35.1495C60.9165 32.1508 62.4159 29.5189 64.298 27.254C66.1802 24.989 68.493 23.2344 71.2365 21.9903C73.98 20.7143 77.218 20.14 80.9504 20.2676C85.0656 20.3633 88.3355 21.3682 90.76 23.2823C93.2163 25.1644 94.939 27.6687 95.9279 30.795C96.9169 33.8894 97.2997 37.3187 97.0764 41.0831L82.673 41.0352C82.8326 39.9187 82.9602 38.7224 83.0559 37.4464C83.1835 36.1703 83.024 35.0697 82.5773 34.1446C82.1307 33.2195 81.1258 32.725 79.5627 32.6612C77.9038 32.5655 76.6437 32.9164 75.7824 33.7139C74.9211 34.5115 74.315 35.5482 73.9641 36.8243C73.6132 38.0684 73.3898 39.4083 73.2941 40.8438C73.1984 42.2475 73.0868 43.5235 72.9592 44.6719L72.385 49.6485C72.2574 50.4779 72.034 51.5626 71.715 52.9024C71.4279 54.2103 71.2206 55.5342 71.093 56.8741C70.9973 58.182 71.1887 59.2986 71.6672 60.2237C72.1457 61.1169 73.1187 61.5954 74.5861 61.6592ZM128.027 61.6592C129.494 61.723 130.579 61.42 131.281 60.7501C132.014 60.0482 132.509 59.155 132.764 58.0704C133.051 56.9538 133.227 55.7735 133.29 54.5294L147.598 54.4815C147.439 58.3415 146.497 61.7549 144.775 64.7217C143.084 67.6885 140.755 70.0014 137.788 71.6602C134.854 73.3191 131.424 74.1006 127.5 74.0049C123.927 73.9411 120.945 73.2393 118.552 71.8995C116.191 70.5277 114.341 68.7094 113.001 66.4444C111.693 64.1794 110.816 61.6114 110.37 58.7403C109.955 55.8373 109.923 52.7748 110.274 49.5528L110.992 44.6241C111.406 41.3064 112.156 38.1482 113.241 35.1495C114.357 32.1508 115.857 29.5189 117.739 27.254C119.621 24.989 121.934 23.2344 124.677 21.9903C127.421 20.7143 130.659 20.14 134.391 20.2676C138.506 20.3633 141.776 21.3682 144.201 23.2823C146.657 25.1644 148.38 27.6687 149.369 30.795C150.357 33.8894 150.74 37.3187 150.517 41.0831L136.114 41.0352C136.273 39.9187 136.401 38.7224 136.496 37.4464C136.624 36.1703 136.465 35.0697 136.018 34.1446C135.571 33.2195 134.566 32.725 133.003 32.6612C131.344 32.5655 130.084 32.9164 129.223 33.7139C128.362 34.5115 127.756 35.5482 127.405 36.8243C127.054 38.0684 126.83 39.4083 126.735 40.8438C126.639 42.2475 126.527 43.5235 126.4 44.6719L125.826 49.6485C125.698 50.4779 125.475 51.5626 125.156 52.9024C124.869 54.2103 124.661 55.5342 124.534 56.8741C124.438 58.182 124.629 59.2986 125.108 60.2237C125.586 61.1169 126.559 61.5954 128.027 61.6592ZM183.334 73.9571C179.952 73.8933 176.969 73.2712 174.385 72.0909C171.833 70.9105 169.728 69.2836 168.069 67.21C166.442 65.1046 165.294 62.6641 164.624 59.8887C163.954 57.0814 163.762 54.0349 164.049 50.7491L164.767 45.1026C165.214 41.5935 166.011 38.3236 167.16 35.293C168.308 32.2624 169.855 29.5987 171.801 27.3018C173.779 25.0049 176.188 23.2344 179.027 21.9903C181.866 20.7143 185.216 20.14 189.076 20.2676C192.553 20.3633 195.424 21.0971 197.689 22.4688C199.986 23.8406 201.756 25.6749 203.001 27.9717C204.277 30.2686 205.106 32.8526 205.489 35.7237C205.872 38.5948 205.888 41.5775 205.537 44.6719L204.436 52.1846H169.409L171.179 42.088L190.751 42.1358L191.086 40.2217C191.245 39.0733 191.357 37.9408 191.421 36.8243C191.484 35.6758 191.261 34.7188 190.751 33.9532C190.272 33.1557 189.299 32.6931 187.832 32.5655C186.045 32.5017 184.673 32.8686 183.716 33.6661C182.759 34.4317 182.042 35.4685 181.563 36.7764C181.116 38.0525 180.797 39.4402 180.606 40.9395C180.415 42.407 180.255 43.7947 180.128 45.1026L179.41 50.7969C179.282 52.073 179.202 53.3331 179.171 54.5772C179.139 55.7894 179.282 56.9219 179.601 57.9747C179.952 58.9955 180.526 59.8249 181.324 60.463C182.153 61.0691 183.381 61.404 185.008 61.4678C186.986 61.5316 188.852 61.2126 190.607 60.5108C192.362 59.7771 193.941 58.7084 195.344 57.3047L200.991 67.21C199.683 68.9327 198.024 70.2885 196.014 71.2774C194.036 72.2344 191.931 72.9203 189.698 73.335C187.497 73.7816 185.375 73.989 183.334 73.9571ZM240.889 58.5489C241.081 57.5919 240.762 56.7624 239.932 56.0606C239.135 55.3588 238.194 54.7367 237.109 54.1944C236.056 53.6521 235.259 53.1576 234.717 52.711C233.026 51.8497 231.415 50.9245 229.884 49.9356C228.384 48.9148 227.06 47.7663 225.912 46.4903C224.763 45.2143 223.87 43.7628 223.232 42.1358C222.594 40.5089 222.339 38.6586 222.467 36.585C222.562 33.9691 223.168 31.6404 224.285 29.5987C225.401 27.557 226.869 25.8344 228.687 24.4307C230.538 23.0271 232.595 21.9584 234.86 21.2247C237.157 20.4909 239.55 20.1719 242.038 20.2676C245.387 20.2995 248.386 20.9695 251.034 22.2774C253.714 23.5534 255.819 25.4197 257.35 27.876C258.882 30.3005 259.647 33.2354 259.647 36.6807L244.383 36.6329C244.415 35.7396 244.43 34.8624 244.43 34.001C244.43 33.1078 244.223 32.39 243.808 31.8477C243.394 31.2735 242.58 30.9864 241.368 30.9864C240.507 31.0183 239.757 31.2735 239.119 31.752C238.481 32.1986 237.971 32.7888 237.588 33.5225C237.205 34.2243 236.934 34.9581 236.774 35.7237C236.615 36.3936 236.631 37.0157 236.822 37.5899C237.045 38.1322 237.348 38.6426 237.731 39.1212C238.146 39.5678 238.609 39.9825 239.119 40.3653C239.661 40.7162 240.204 41.0352 240.746 41.3223C243.33 42.407 245.754 43.6352 248.019 45.0069C250.316 46.3467 252.182 48.0534 253.618 50.127C255.054 52.1687 255.723 54.8165 255.628 58.0704C255.5 60.782 254.814 63.1426 253.57 65.1524C252.358 67.1622 250.747 68.821 248.737 70.129C246.759 71.4369 244.574 72.4099 242.181 73.0479C239.789 73.7178 237.364 74.0209 234.908 73.9571C231.558 73.8933 228.56 73.1436 225.912 71.7081C223.264 70.2725 221.175 68.2787 219.643 65.7266C218.112 63.1745 217.315 60.1918 217.251 56.7784L231.463 56.8262C231.431 58.0066 231.495 59.0753 231.654 60.0323C231.814 60.9893 232.196 61.7549 232.803 62.3292C233.441 62.9034 234.445 63.1905 235.817 63.1905C236.806 63.1586 237.636 62.9512 238.305 62.5684C238.975 62.1856 239.518 61.6592 239.932 60.9893C240.379 60.2875 240.698 59.474 240.889 58.5489ZM293.756 58.5489C293.947 57.5919 293.628 56.7624 292.799 56.0606C292.001 55.3588 291.06 54.7367 289.976 54.1944C288.923 53.6521 288.125 53.1576 287.583 52.711C285.892 51.8497 284.281 50.9245 282.75 49.9356C281.251 48.9148 279.927 47.7663 278.778 46.4903C277.63 45.2143 276.737 43.7628 276.099 42.1358C275.461 40.5089 275.205 38.6586 275.333 36.585C275.429 33.9691 276.035 31.6404 277.151 29.5987C278.268 27.557 279.735 25.8344 281.554 24.4307C283.404 23.0271 285.462 21.9584 287.727 21.2247C290.023 20.4909 292.416 20.1719 294.904 20.2676C298.254 20.2995 301.253 20.9695 303.9 22.2774C306.58 23.5534 308.686 25.4197 310.217 27.876C311.748 30.3005 312.514 33.2354 312.514 36.6807L297.249 36.6329C297.281 35.7396 297.297 34.8624 297.297 34.001C297.297 33.1078 297.09 32.39 296.675 31.8477C296.26 31.2735 295.447 30.9864 294.234 30.9864C293.373 31.0183 292.623 31.2735 291.985 31.752C291.347 32.1986 290.837 32.7888 290.454 33.5225C290.071 34.2243 289.8 34.9581 289.641 35.7237C289.481 36.3936 289.497 37.0157 289.688 37.5899C289.912 38.1322 290.215 38.6426 290.598 39.1212C291.012 39.5678 291.475 39.9825 291.985 40.3653C292.528 40.7162 293.07 41.0352 293.612 41.3223C296.196 42.407 298.621 43.6352 300.886 45.0069C303.183 46.3467 305.049 48.0534 306.484 50.127C307.92 52.1687 308.59 54.8165 308.494 58.0704C308.367 60.782 307.681 63.1426 306.437 65.1524C305.224 67.1622 303.613 68.821 301.604 70.129C299.626 71.4369 297.44 72.4099 295.048 73.0479C292.655 73.7178 290.231 74.0209 287.774 73.9571C284.425 73.8933 281.426 73.1436 278.778 71.7081C276.131 70.2725 274.041 68.2787 272.51 65.7266C270.979 63.1745 270.181 60.1918 270.117 56.7784L284.329 56.8262C284.297 58.0066 284.361 59.0753 284.521 60.0323C284.68 60.9893 285.063 61.7549 285.669 62.3292C286.307 62.9034 287.312 63.1905 288.684 63.1905C289.673 63.1586 290.502 62.9512 291.172 62.5684C291.842 62.1856 292.384 61.6592 292.799 60.9893C293.245 60.2875 293.564 59.474 293.756 58.5489Z" fill="#222222"/>
</svg>
