<svg width="408" height="73" viewBox="0 0 408 73" fill="none" xmlns="http://www.w3.org/2000/svg">
<path d="M23.4424 53.9844L27.0312 31.0156C27.0951 30.1862 27.1748 29.3727 27.2705 28.5752C27.3981 27.7458 27.3024 27.0439 26.9834 26.4697C26.6963 25.8636 25.9785 25.5765 24.8301 25.6084C23.7135 25.5765 22.916 25.8477 22.4375 26.4219C21.9909 26.9642 21.7038 27.666 21.5762 28.5273C21.4805 29.3887 21.3529 30.25 21.1934 31.1113L5.83301 31.207C5.96061 28.4635 6.59863 26.0231 7.74707 23.8857C8.92741 21.7484 10.4746 19.9619 12.3887 18.5264C14.3027 17.0908 16.4561 16.0062 18.8486 15.2725C21.2731 14.5387 23.7933 14.2038 26.4092 14.2676C29.8226 14.2995 32.8053 15.0013 35.3574 16.373C37.9095 17.7129 39.8236 19.6589 41.0996 22.2109C42.3757 24.763 42.8382 27.7936 42.4873 31.3027L38.8506 53.9844C38.5635 55.9622 38.3561 57.988 38.2285 60.0615C38.1328 62.1351 38.3402 64.1449 38.8506 66.0908L38.8027 67L23.9209 67.0479C23.251 64.9743 22.916 62.821 22.916 60.5879C22.9479 58.3548 23.1234 56.1536 23.4424 53.9844ZM28.4189 35.3701L26.9834 43.9834L23.7295 43.9355C22.5492 43.9674 21.5283 44.2386 20.667 44.749C19.8057 45.2275 19.0879 45.8656 18.5137 46.6631C17.9714 47.4287 17.5407 48.306 17.2217 49.2949C16.9027 50.2839 16.6794 51.3206 16.5518 52.4053C16.4242 53.1071 16.3285 53.793 16.2646 54.4629C16.2327 55.1009 16.3444 55.6432 16.5996 56.0898C16.8548 56.5046 17.445 56.7119 18.3701 56.7119C19.3271 56.7119 20.2044 56.4886 21.002 56.042C21.7995 55.5954 22.4694 55.0212 23.0117 54.3193C23.554 53.6175 23.889 52.82 24.0166 51.9268L24.9258 58.4346C24.3197 59.6468 23.7135 60.8271 23.1074 61.9756C22.5013 63.124 21.8154 64.1608 21.0498 65.0859C20.2842 66.0111 19.3431 66.7288 18.2266 67.2393C17.1419 67.7816 15.7702 68.0527 14.1113 68.0527C11.2721 68.0527 8.83171 67.3669 6.79004 65.9951C4.78027 64.6234 3.26497 62.821 2.24414 60.5879C1.25521 58.3548 0.808594 55.8506 0.904297 53.0752C1 49.917 1.70182 47.2054 3.00977 44.9404C4.34961 42.6755 6.10417 40.8411 8.27344 39.4375C10.4427 38.0339 12.8512 36.9971 15.499 36.3271C18.1468 35.6572 20.9062 35.3223 23.7773 35.3223L28.4189 35.3701ZM74.5861 55.6592C76.0536 55.723 77.1382 55.4199 77.84 54.75C78.5738 54.0482 79.0682 53.1549 79.3234 52.0703C79.6105 50.9538 79.786 49.7734 79.8498 48.5293L94.1574 48.4814C93.9979 52.3415 93.0568 55.7549 91.3342 58.7217C89.6434 61.6885 87.3146 64.0013 84.3479 65.6602C81.413 67.319 77.9836 68.1006 74.0598 68.0049C70.4868 67.9411 67.5041 67.2393 65.1115 65.8994C62.7508 64.5277 60.9006 62.7093 59.5607 60.4443C58.2528 58.1794 57.3755 55.6113 56.9289 52.7402C56.5142 49.8372 56.4823 46.7747 56.8332 43.5527L57.551 38.624C57.9657 35.3063 58.7154 32.1481 59.8 29.1494C60.9165 26.1507 62.4159 23.5189 64.298 21.2539C66.1802 18.9889 68.493 17.2344 71.2365 15.9902C73.98 14.7142 77.218 14.14 80.9504 14.2676C85.0656 14.3633 88.3355 15.3682 90.76 17.2822C93.2163 19.1644 94.939 21.6686 95.9279 24.7949C96.9169 27.8893 97.2997 31.3187 97.0764 35.083L82.673 35.0352C82.8326 33.9186 82.9602 32.7223 83.0559 31.4463C83.1835 30.1702 83.024 29.0697 82.5773 28.1445C82.1307 27.2194 81.1258 26.7249 79.5627 26.6611C77.9038 26.5654 76.6437 26.9163 75.7824 27.7139C74.9211 28.5114 74.315 29.5482 73.9641 30.8242C73.6132 32.0684 73.3898 33.4082 73.2941 34.8438C73.1984 36.2474 73.0868 37.5234 72.9592 38.6719L72.385 43.6484C72.2574 44.4779 72.034 45.5625 71.715 46.9023C71.4279 48.2103 71.2206 49.5342 71.093 50.874C70.9973 52.182 71.1887 53.2985 71.6672 54.2236C72.1457 55.1169 73.1187 55.5954 74.5861 55.6592ZM128.027 55.6592C129.494 55.723 130.579 55.4199 131.281 54.75C132.014 54.0482 132.509 53.1549 132.764 52.0703C133.051 50.9538 133.227 49.7734 133.29 48.5293L147.598 48.4814C147.439 52.3415 146.497 55.7549 144.775 58.7217C143.084 61.6885 140.755 64.0013 137.788 65.6602C134.854 67.319 131.424 68.1006 127.5 68.0049C123.927 67.9411 120.945 67.2393 118.552 65.8994C116.191 64.5277 114.341 62.7093 113.001 60.4443C111.693 58.1794 110.816 55.6113 110.37 52.7402C109.955 49.8372 109.923 46.7747 110.274 43.5527L110.992 38.624C111.406 35.3063 112.156 32.1481 113.241 29.1494C114.357 26.1507 115.857 23.5189 117.739 21.2539C119.621 18.9889 121.934 17.2344 124.677 15.9902C127.421 14.7142 130.659 14.14 134.391 14.2676C138.506 14.3633 141.776 15.3682 144.201 17.2822C146.657 19.1644 148.38 21.6686 149.369 24.7949C150.357 27.8893 150.74 31.3187 150.517 35.083L136.114 35.0352C136.273 33.9186 136.401 32.7223 136.496 31.4463C136.624 30.1702 136.465 29.0697 136.018 28.1445C135.571 27.2194 134.566 26.7249 133.003 26.6611C131.344 26.5654 130.084 26.9163 129.223 27.7139C128.362 28.5114 127.756 29.5482 127.405 30.8242C127.054 32.0684 126.83 33.4082 126.735 34.8438C126.639 36.2474 126.527 37.5234 126.4 38.6719L125.826 43.6484C125.698 44.4779 125.475 45.5625 125.156 46.9023C124.869 48.2103 124.661 49.5342 124.534 50.874C124.438 52.182 124.629 53.2985 125.108 54.2236C125.586 55.1169 126.559 55.5954 128.027 55.6592ZM183.334 67.957C179.952 67.8932 176.969 67.2712 174.385 66.0908C171.833 64.9105 169.728 63.2835 168.069 61.21C166.442 59.1045 165.294 56.6641 164.624 53.8887C163.954 51.0814 163.762 48.0348 164.049 44.749L164.767 39.1025C165.214 35.5934 166.011 32.3236 167.16 29.293C168.308 26.2624 169.855 23.5986 171.801 21.3018C173.779 19.0049 176.188 17.2344 179.027 15.9902C181.866 14.7142 185.216 14.14 189.076 14.2676C192.553 14.3633 195.424 15.097 197.689 16.4688C199.986 17.8405 201.756 19.6748 203.001 21.9717C204.277 24.2686 205.106 26.8525 205.489 29.7236C205.872 32.5947 205.888 35.5775 205.537 38.6719L204.436 46.1846H169.409L171.179 36.0879L190.751 36.1357L191.086 34.2217C191.245 33.0732 191.357 31.9408 191.421 30.8242C191.484 29.6758 191.261 28.7188 190.751 27.9531C190.272 27.1556 189.299 26.693 187.832 26.5654C186.045 26.5016 184.673 26.8685 183.716 27.666C182.759 28.4316 182.042 29.4684 181.563 30.7764C181.116 32.0524 180.797 33.4401 180.606 34.9395C180.415 36.4069 180.255 37.7946 180.128 39.1025L179.41 44.7969C179.282 46.0729 179.202 47.333 179.171 48.5771C179.139 49.7894 179.282 50.9219 179.601 51.9746C179.952 52.9954 180.526 53.8249 181.324 54.4629C182.153 55.069 183.381 55.404 185.008 55.4678C186.986 55.5316 188.852 55.2126 190.607 54.5107C192.362 53.777 193.941 52.7083 195.344 51.3047L200.991 61.21C199.683 62.9326 198.024 64.2884 196.014 65.2773C194.036 66.2344 191.931 66.9202 189.698 67.335C187.497 67.7816 185.375 67.9889 183.334 67.957ZM240.889 52.5488C241.081 51.5918 240.762 50.7624 239.932 50.0605C239.135 49.3587 238.194 48.7367 237.109 48.1943C236.056 47.652 235.259 47.1576 234.717 46.7109C233.026 45.8496 231.415 44.9245 229.884 43.9355C228.384 42.9147 227.06 41.7663 225.912 40.4902C224.763 39.2142 223.87 37.7627 223.232 36.1357C222.594 34.5088 222.339 32.6585 222.467 30.585C222.562 27.9691 223.168 25.6403 224.285 23.5986C225.401 21.557 226.869 19.8343 228.687 18.4307C230.538 17.027 232.595 15.9583 234.86 15.2246C237.157 14.4909 239.55 14.1719 242.038 14.2676C245.387 14.2995 248.386 14.9694 251.034 16.2773C253.714 17.5534 255.819 19.4196 257.35 21.876C258.882 24.3005 259.647 27.2354 259.647 30.6807L244.383 30.6328C244.415 29.7396 244.43 28.8623 244.43 28.001C244.43 27.1077 244.223 26.39 243.808 25.8477C243.394 25.2734 242.58 24.9863 241.368 24.9863C240.507 25.0182 239.757 25.2734 239.119 25.752C238.481 26.1986 237.971 26.7887 237.588 27.5225C237.205 28.2243 236.934 28.958 236.774 29.7236C236.615 30.3936 236.631 31.0156 236.822 31.5898C237.045 32.1322 237.348 32.6426 237.731 33.1211C238.146 33.5677 238.609 33.9824 239.119 34.3652C239.661 34.7161 240.204 35.0352 240.746 35.3223C243.33 36.4069 245.754 37.6351 248.019 39.0068C250.316 40.3467 252.182 42.0534 253.618 44.127C255.054 46.1686 255.723 48.8164 255.628 52.0703C255.5 54.7819 254.814 57.1426 253.57 59.1523C252.358 61.1621 250.747 62.821 248.737 64.1289C246.759 65.4368 244.574 66.4098 242.181 67.0479C239.789 67.7178 237.364 68.0208 234.908 67.957C231.558 67.8932 228.56 67.1436 225.912 65.708C223.264 64.2725 221.175 62.2786 219.643 59.7266C218.112 57.1745 217.315 54.1917 217.251 50.7783L231.463 50.8262C231.431 52.0065 231.495 53.0752 231.654 54.0322C231.814 54.9893 232.196 55.7549 232.803 56.3291C233.441 56.9033 234.445 57.1904 235.817 57.1904C236.806 57.1585 237.636 56.9512 238.305 56.5684C238.975 56.1855 239.518 55.6592 239.932 54.9893C240.379 54.2874 240.698 53.474 240.889 52.5488ZM293.756 52.5488C293.947 51.5918 293.628 50.7624 292.799 50.0605C292.001 49.3587 291.06 48.7367 289.976 48.1943C288.923 47.652 288.125 47.1576 287.583 46.7109C285.892 45.8496 284.281 44.9245 282.75 43.9355C281.251 42.9147 279.927 41.7663 278.778 40.4902C277.63 39.2142 276.737 37.7627 276.099 36.1357C275.461 34.5088 275.205 32.6585 275.333 30.585C275.429 27.9691 276.035 25.6403 277.151 23.5986C278.268 21.557 279.735 19.8343 281.554 18.4307C283.404 17.027 285.462 15.9583 287.727 15.2246C290.023 14.4909 292.416 14.1719 294.904 14.2676C298.254 14.2995 301.253 14.9694 303.9 16.2773C306.58 17.5534 308.686 19.4196 310.217 21.876C311.748 24.3005 312.514 27.2354 312.514 30.6807L297.249 30.6328C297.281 29.7396 297.297 28.8623 297.297 28.001C297.297 27.1077 297.09 26.39 296.675 25.8477C296.26 25.2734 295.447 24.9863 294.234 24.9863C293.373 25.0182 292.623 25.2734 291.985 25.752C291.347 26.1986 290.837 26.7887 290.454 27.5225C290.071 28.2243 289.8 28.958 289.641 29.7236C289.481 30.3936 289.497 31.0156 289.688 31.5898C289.912 32.1322 290.215 32.6426 290.598 33.1211C291.012 33.5677 291.475 33.9824 291.985 34.3652C292.528 34.7161 293.07 35.0352 293.612 35.3223C296.196 36.4069 298.621 37.6351 300.886 39.0068C303.183 40.3467 305.049 42.0534 306.484 44.127C307.92 46.1686 308.59 48.8164 308.494 52.0703C308.367 54.7819 307.681 57.1426 306.437 59.1523C305.224 61.1621 303.613 62.821 301.604 64.1289C299.626 65.4368 297.44 66.4098 295.048 67.0479C292.655 67.7178 290.231 68.0208 287.774 67.957C284.425 67.8932 281.426 67.1436 278.778 65.708C276.131 64.2725 274.041 62.2786 272.51 59.7266C270.979 57.1745 270.181 54.1917 270.117 50.7783L284.329 50.8262C284.297 52.0065 284.361 53.0752 284.521 54.0322C284.68 54.9893 285.063 55.7549 285.669 56.3291C286.307 56.9033 287.312 57.1904 288.684 57.1904C289.673 57.1585 290.502 56.9512 291.172 56.5684C291.842 56.1855 292.384 55.6592 292.799 54.9893C293.245 54.2874 293.564 53.474 293.756 52.5488Z" fill="#222222"/>
<path d="M364.354 33.4746L361.913 47.3037H322.962L325.354 33.4746H364.354ZM355.262 15.291L346.457 66.0137H332.149L340.954 15.291H355.262Z" fill="#1669B6"/>
</svg>
