<svg width="423" height="110" viewBox="0 0 423 110" fill="none" xmlns="http://www.w3.org/2000/svg">
<path d="M376.715 8.52313C379.414 7.49693 382.458 8.00576 384.677 9.85438L414.591 34.7725C416.775 36.5921 417.83 39.4344 417.361 42.2385L410.855 81.156C410.386 83.9601 408.464 86.3047 405.807 87.3148L369.414 101.147C366.714 102.173 363.671 101.665 361.451 99.816L331.538 74.8979C329.353 73.0783 328.298 70.236 328.767 67.4319L335.274 28.5144C335.743 25.7103 337.664 23.3657 340.322 22.3556L376.715 8.52313Z" fill="#1E66B3"/>
<path d="M393.484 48.3098L391.044 62.1389H352.093L354.485 48.3098H393.484ZM384.393 30.1262L375.588 80.8489H361.28L370.085 30.1262H384.393Z" fill="#FFEEDF"/>
<path d="M23.4424 67.9844L27.0312 45.0157C27.0951 44.1862 27.1748 43.3728 27.2705 42.5752C27.3981 41.7458 27.3024 41.044 26.9834 40.4698C26.6963 39.8637 25.9785 39.5765 24.8301 39.6084C23.7135 39.5765 22.916 39.8477 22.4375 40.4219C21.9909 40.9642 21.7038 41.6661 21.5762 42.5274C21.4805 43.3887 21.3529 44.25 21.1934 45.1114L5.83301 45.2071C5.96061 42.4636 6.59863 40.0232 7.74707 37.8858C8.92741 35.7484 10.4746 33.962 12.3887 32.5264C14.3027 31.0909 16.4561 30.0062 18.8486 29.2725C21.2731 28.5388 23.7933 28.2038 26.4092 28.2676C29.8226 28.2995 32.8053 29.0013 35.3574 30.3731C37.9095 31.7129 39.8236 33.6589 41.0996 36.211C42.3757 38.7631 42.8382 41.7937 42.4873 45.3028L38.8506 67.9844C38.5635 69.9623 38.3561 71.988 38.2285 74.0616C38.1328 76.1351 38.3402 78.1449 38.8506 80.0909L38.8027 81L23.9209 81.0479C23.251 78.9743 22.916 76.821 22.916 74.5879C22.9479 72.3549 23.1234 70.1537 23.4424 67.9844ZM28.4189 49.3702L26.9834 57.9834L23.7295 57.9356C22.5492 57.9675 21.5283 58.2387 20.667 58.7491C19.8057 59.2276 19.0879 59.8656 18.5137 60.6631C17.9714 61.4288 17.5407 62.306 17.2217 63.295C16.9027 64.2839 16.6794 65.3207 16.5518 66.4053C16.4242 67.1071 16.3285 67.793 16.2646 68.4629C16.2327 69.101 16.3444 69.6433 16.5996 70.0899C16.8548 70.5046 17.445 70.712 18.3701 70.712C19.3271 70.712 20.2044 70.4887 21.002 70.042C21.7995 69.5954 22.4694 69.0212 23.0117 68.3194C23.554 67.6176 23.889 66.82 24.0166 65.9268L24.9258 72.4346C24.3197 73.6469 23.7135 74.8272 23.1074 75.9756C22.5013 77.1241 21.8154 78.1609 21.0498 79.086C20.2842 80.0111 19.3431 80.7289 18.2266 81.2393C17.1419 81.7816 15.7702 82.0528 14.1113 82.0528C11.2721 82.0528 8.83171 81.3669 6.79004 79.9952C4.78027 78.6234 3.26497 76.821 2.24414 74.5879C1.25521 72.3549 0.808594 69.8506 0.904297 67.0752C1 63.917 1.70182 61.2054 3.00977 58.9405C4.34961 56.6755 6.10417 54.8412 8.27344 53.4375C10.4427 52.0339 12.8512 50.9971 15.499 50.3272C18.1468 49.6573 20.9062 49.3223 23.7773 49.3223L28.4189 49.3702ZM74.5861 69.6592C76.0536 69.723 77.1382 69.42 77.84 68.75C78.5738 68.0482 79.0682 67.155 79.3234 66.0704C79.6105 64.9538 79.786 63.7735 79.8498 62.5293L94.1574 62.4815C93.9979 66.3415 93.0568 69.7549 91.3342 72.7217C89.6434 75.6885 87.3146 78.0013 84.3479 79.6602C81.413 81.3191 77.9836 82.1006 74.0598 82.0049C70.4868 81.9411 67.5041 81.2393 65.1115 79.8995C62.7508 78.5277 60.9006 76.7094 59.5607 74.4444C58.2528 72.1794 57.3755 69.6114 56.9289 66.7403C56.5142 63.8373 56.4823 60.7748 56.8332 57.5528L57.551 52.6241C57.9657 49.3064 58.7154 46.1482 59.8 43.1495C60.9165 40.1508 62.4159 37.5189 64.298 35.254C66.1802 32.989 68.493 31.2344 71.2365 29.9903C73.98 28.7142 77.218 28.14 80.9504 28.2676C85.0656 28.3633 88.3355 29.3682 90.76 31.2823C93.2163 33.1644 94.939 35.6687 95.9279 38.795C96.9169 41.8894 97.2997 45.3187 97.0764 49.0831L82.673 49.0352C82.8326 47.9187 82.9602 46.7224 83.0559 45.4463C83.1835 44.1703 83.024 43.0697 82.5773 42.1446C82.1307 41.2194 81.1258 40.725 79.5627 40.6612C77.9038 40.5655 76.6437 40.9164 75.7824 41.7139C74.9211 42.5114 74.315 43.5482 73.9641 44.8243C73.6132 46.0684 73.3898 47.4082 73.2941 48.8438C73.1984 50.2474 73.0868 51.5235 72.9592 52.6719L72.385 57.6485C72.2574 58.4779 72.034 59.5625 71.715 60.9024C71.4279 62.2103 71.2206 63.5342 71.093 64.8741C70.9973 66.182 71.1887 67.2985 71.6672 68.2237C72.1457 69.1169 73.1187 69.5954 74.5861 69.6592ZM128.027 69.6592C129.494 69.723 130.579 69.42 131.281 68.75C132.014 68.0482 132.509 67.155 132.764 66.0704C133.051 64.9538 133.227 63.7735 133.29 62.5293L147.598 62.4815C147.439 66.3415 146.497 69.7549 144.775 72.7217C143.084 75.6885 140.755 78.0013 137.788 79.6602C134.854 81.3191 131.424 82.1006 127.5 82.0049C123.927 81.9411 120.945 81.2393 118.552 79.8995C116.191 78.5277 114.341 76.7094 113.001 74.4444C111.693 72.1794 110.816 69.6114 110.37 66.7403C109.955 63.8373 109.923 60.7748 110.274 57.5528L110.992 52.6241C111.406 49.3064 112.156 46.1482 113.241 43.1495C114.357 40.1508 115.857 37.5189 117.739 35.254C119.621 32.989 121.934 31.2344 124.677 29.9903C127.421 28.7142 130.659 28.14 134.391 28.2676C138.506 28.3633 141.776 29.3682 144.201 31.2823C146.657 33.1644 148.38 35.6687 149.369 38.795C150.357 41.8894 150.74 45.3187 150.517 49.0831L136.114 49.0352C136.273 47.9187 136.401 46.7224 136.496 45.4463C136.624 44.1703 136.465 43.0697 136.018 42.1446C135.571 41.2194 134.566 40.725 133.003 40.6612C131.344 40.5655 130.084 40.9164 129.223 41.7139C128.362 42.5114 127.756 43.5482 127.405 44.8243C127.054 46.0684 126.83 47.4082 126.735 48.8438C126.639 50.2474 126.527 51.5235 126.4 52.6719L125.826 57.6485C125.698 58.4779 125.475 59.5625 125.156 60.9024C124.869 62.2103 124.661 63.5342 124.534 64.8741C124.438 66.182 124.629 67.2985 125.108 68.2237C125.586 69.1169 126.559 69.5954 128.027 69.6592ZM183.334 81.9571C179.952 81.8933 176.969 81.2712 174.385 80.0909C171.833 78.9105 169.728 77.2836 168.069 75.21C166.442 73.1045 165.294 70.6641 164.624 67.8887C163.954 65.0814 163.762 62.0349 164.049 58.7491L164.767 53.1026C165.214 49.5935 166.011 46.3236 167.16 43.293C168.308 40.2624 169.855 37.5987 171.801 35.3018C173.779 33.0049 176.188 31.2344 179.027 29.9903C181.866 28.7142 185.216 28.14 189.076 28.2676C192.553 28.3633 195.424 29.0971 197.689 30.4688C199.986 31.8405 201.756 33.6749 203.001 35.9717C204.277 38.2686 205.106 40.8526 205.489 43.7237C205.872 46.5948 205.888 49.5775 205.537 52.6719L204.436 60.1846H169.409L171.179 50.0879L190.751 50.1358L191.086 48.2217C191.245 47.0733 191.357 45.9408 191.421 44.8243C191.484 43.6758 191.261 42.7188 190.751 41.9532C190.272 41.1556 189.299 40.6931 187.832 40.5655C186.045 40.5017 184.673 40.8685 183.716 41.6661C182.759 42.4317 182.042 43.4685 181.563 44.7764C181.116 46.0525 180.797 47.4401 180.606 48.9395C180.415 50.4069 180.255 51.7946 180.128 53.1026L179.41 58.7969C179.282 60.073 179.202 61.3331 179.171 62.5772C179.139 63.7894 179.282 64.9219 179.601 65.9747C179.952 66.9955 180.526 67.8249 181.324 68.4629C182.153 69.0691 183.381 69.404 185.008 69.4678C186.986 69.5316 188.852 69.2126 190.607 68.5108C192.362 67.7771 193.941 66.7084 195.344 65.3047L200.991 75.21C199.683 76.9327 198.024 78.2885 196.014 79.2774C194.036 80.2344 191.931 80.9203 189.698 81.335C187.497 81.7816 185.375 81.989 183.334 81.9571ZM240.889 66.5489C241.081 65.5918 240.762 64.7624 239.932 64.0606C239.135 63.3588 238.194 62.7367 237.109 62.1944C236.056 61.6521 235.259 61.1576 234.717 60.711C233.026 59.8497 231.415 58.9245 229.884 57.9356C228.384 56.9148 227.06 55.7663 225.912 54.4903C224.763 53.2142 223.87 51.7627 223.232 50.1358C222.594 48.5088 222.339 46.6586 222.467 44.585C222.562 41.9691 223.168 39.6403 224.285 37.5987C225.401 35.557 226.869 33.8344 228.687 32.4307C230.538 31.0271 232.595 29.9584 234.86 29.2247C237.157 28.4909 239.55 28.1719 242.038 28.2676C245.387 28.2995 248.386 28.9694 251.034 30.2774C253.714 31.5534 255.819 33.4196 257.35 35.876C258.882 38.3005 259.647 41.2354 259.647 44.6807L244.383 44.6329C244.415 43.7396 244.43 42.8624 244.43 42.001C244.43 41.1078 244.223 40.39 243.808 39.8477C243.394 39.2735 242.58 38.9864 241.368 38.9864C240.507 39.0183 239.757 39.2735 239.119 39.752C238.481 40.1986 237.971 40.7888 237.588 41.5225C237.205 42.2243 236.934 42.9581 236.774 43.7237C236.615 44.3936 236.631 45.0157 236.822 45.5899C237.045 46.1322 237.348 46.6426 237.731 47.1211C238.146 47.5678 238.609 47.9825 239.119 48.3653C239.661 48.7162 240.204 49.0352 240.746 49.3223C243.33 50.4069 245.754 51.6351 248.019 53.0069C250.316 54.3467 252.182 56.0534 253.618 58.127C255.054 60.1687 255.723 62.8165 255.628 66.0704C255.5 68.7819 254.814 71.1426 253.57 73.1524C252.358 75.1622 250.747 76.821 248.737 78.129C246.759 79.4369 244.574 80.4099 242.181 81.0479C239.789 81.7178 237.364 82.0209 234.908 81.9571C231.558 81.8933 228.56 81.1436 225.912 79.7081C223.264 78.2725 221.175 76.2787 219.643 73.7266C218.112 71.1745 217.315 68.1918 217.251 64.7784L231.463 64.8262C231.431 66.0066 231.495 67.0752 231.654 68.0323C231.814 68.9893 232.196 69.7549 232.803 70.3291C233.441 70.9034 234.445 71.1905 235.817 71.1905C236.806 71.1586 237.636 70.9512 238.305 70.5684C238.975 70.1856 239.518 69.6592 239.932 68.9893C240.379 68.2875 240.698 67.474 240.889 66.5489ZM293.756 66.5489C293.947 65.5918 293.628 64.7624 292.799 64.0606C292.001 63.3588 291.06 62.7367 289.976 62.1944C288.923 61.6521 288.125 61.1576 287.583 60.711C285.892 59.8497 284.281 58.9245 282.75 57.9356C281.251 56.9148 279.927 55.7663 278.778 54.4903C277.63 53.2142 276.737 51.7627 276.099 50.1358C275.461 48.5088 275.205 46.6586 275.333 44.585C275.429 41.9691 276.035 39.6403 277.151 37.5987C278.268 35.557 279.735 33.8344 281.554 32.4307C283.404 31.0271 285.462 29.9584 287.727 29.2247C290.023 28.4909 292.416 28.1719 294.904 28.2676C298.254 28.2995 301.253 28.9694 303.9 30.2774C306.58 31.5534 308.686 33.4196 310.217 35.876C311.748 38.3005 312.514 41.2354 312.514 44.6807L297.249 44.6329C297.281 43.7396 297.297 42.8624 297.297 42.001C297.297 41.1078 297.09 40.39 296.675 39.8477C296.26 39.2735 295.447 38.9864 294.234 38.9864C293.373 39.0183 292.623 39.2735 291.985 39.752C291.347 40.1986 290.837 40.7888 290.454 41.5225C290.071 42.2243 289.8 42.9581 289.641 43.7237C289.481 44.3936 289.497 45.0157 289.688 45.5899C289.912 46.1322 290.215 46.6426 290.598 47.1211C291.012 47.5678 291.475 47.9825 291.985 48.3653C292.528 48.7162 293.07 49.0352 293.612 49.3223C296.196 50.4069 298.621 51.6351 300.886 53.0069C303.183 54.3467 305.049 56.0534 306.484 58.127C307.92 60.1687 308.59 62.8165 308.494 66.0704C308.367 68.7819 307.681 71.1426 306.437 73.1524C305.224 75.1622 303.613 76.821 301.604 78.129C299.626 79.4369 297.44 80.4099 295.048 81.0479C292.655 81.7178 290.231 82.0209 287.774 81.9571C284.425 81.8933 281.426 81.1436 278.778 79.7081C276.131 78.2725 274.041 76.2787 272.51 73.7266C270.979 71.1745 270.181 68.1918 270.117 64.7784L284.329 64.8262C284.297 66.0066 284.361 67.0752 284.521 68.0323C284.68 68.9893 285.063 69.7549 285.669 70.3291C286.307 70.9034 287.312 71.1905 288.684 71.1905C289.673 71.1586 290.502 70.9512 291.172 70.5684C291.842 70.1856 292.384 69.6592 292.799 68.9893C293.245 68.2875 293.564 67.474 293.756 66.5489Z" fill="#222222"/>
</svg>
