<svg width="553" height="94" viewBox="0 0 553 94" fill="none" xmlns="http://www.w3.org/2000/svg">
<path d="M551.473 42.3086L547.787 63.1934H488.963L492.576 42.3086H551.473ZM537.742 14.8477L524.445 91.4492H502.838L516.135 14.8477H537.742Z" fill="#1E66B3"/>
<path d="M34.8926 72.3438L40.3125 37.6562C40.4089 36.4036 40.5293 35.1751 40.6738 33.9707C40.8665 32.7181 40.722 31.6582 40.2402 30.791C39.8066 29.8757 38.7227 29.4421 36.9883 29.4902C35.3021 29.4421 34.0977 29.8516 33.375 30.7188C32.7005 31.5378 32.2669 32.5977 32.0742 33.8984C31.9297 35.1992 31.737 36.5 31.4961 37.8008L8.29883 37.9453C8.49154 33.8021 9.45508 30.1165 11.1895 26.8887C12.972 23.6608 15.3086 20.9629 18.1992 18.7949C21.0898 16.627 24.3418 14.9889 27.9551 13.8809C31.6165 12.7728 35.4225 12.2669 39.373 12.3633C44.528 12.4115 49.0326 13.4714 52.8867 15.543C56.7409 17.5664 59.6315 20.5052 61.5586 24.3594C63.4857 28.2135 64.1842 32.7904 63.6543 38.0898L58.1621 72.3438C57.7285 75.3307 57.4154 78.39 57.2227 81.5215C57.0781 84.653 57.3913 87.6882 58.1621 90.627L58.0898 92L35.6152 92.0723C34.6035 88.9408 34.0977 85.6888 34.0977 82.3164C34.1458 78.944 34.4108 75.6198 34.8926 72.3438ZM42.4082 44.2324L40.2402 57.2402L35.3262 57.168C33.5436 57.2161 32.002 57.6257 30.7012 58.3965C29.4004 59.1191 28.3164 60.0827 27.4492 61.2871C26.6302 62.4434 25.9798 63.7682 25.498 65.2617C25.0163 66.7552 24.679 68.321 24.4863 69.959C24.2936 71.0189 24.1491 72.0547 24.0527 73.0664C24.0046 74.0299 24.1732 74.849 24.5586 75.5234C24.944 76.1497 25.8353 76.4629 27.2324 76.4629C28.6777 76.4629 30.0026 76.1257 31.207 75.4512C32.4115 74.7767 33.4232 73.9095 34.2422 72.8496C35.0612 71.7897 35.5671 70.5853 35.7598 69.2363L37.1328 79.0645C36.2174 80.8952 35.3021 82.6777 34.3867 84.4121C33.4714 86.1465 32.4355 87.7122 31.2793 89.1094C30.123 90.5065 28.7018 91.5905 27.0156 92.3613C25.3776 93.1803 23.306 93.5898 20.8008 93.5898C16.513 93.5898 12.8275 92.554 9.74414 90.4824C6.70898 88.4108 4.42057 85.6888 2.87891 82.3164C1.38542 78.944 0.710938 75.1621 0.855469 70.9707C1 66.2012 2.0599 62.1061 4.03516 58.6855C6.05859 55.265 8.70833 52.4948 11.9844 50.375C15.2604 48.2552 18.8978 46.6895 22.8965 45.6777C26.8952 44.666 31.0625 44.1602 35.3984 44.1602L42.4082 44.2324ZM112.13 74.873C114.346 74.9694 115.984 74.5117 117.044 73.5C118.152 72.4401 118.899 71.0911 119.284 69.4531C119.718 67.7669 119.983 65.9844 120.079 64.1055L141.687 64.0332C141.446 69.8626 140.025 75.0176 137.423 79.498C134.87 83.9785 131.353 87.4714 126.872 89.9766C122.44 92.4818 117.261 93.6621 111.335 93.5176C105.939 93.4212 101.435 92.3613 97.8215 90.3379C94.2564 88.2663 91.4621 85.5202 89.4387 82.0996C87.4634 78.679 86.1385 74.8008 85.4641 70.4648C84.8378 66.0807 84.7896 61.4557 85.3195 56.5898L86.4035 49.1465C87.0298 44.1361 88.162 39.3665 89.8 34.8379C91.4862 30.3092 93.7505 26.3346 96.593 22.9141C99.4354 19.4935 102.928 16.8438 107.071 14.9648C111.215 13.0378 116.105 12.1706 121.741 12.3633C127.956 12.5078 132.894 14.0254 136.556 16.916C140.265 19.7585 142.867 23.5404 144.361 28.2617C145.854 32.9349 146.432 38.1139 146.095 43.7988L124.343 43.7266C124.584 42.0404 124.777 40.2337 124.921 38.3066C125.114 36.3796 124.873 34.7174 124.198 33.3203C123.524 31.9232 122.006 31.1764 119.646 31.0801C117.14 30.9355 115.238 31.4655 113.937 32.6699C112.636 33.8743 111.721 35.4401 111.191 37.3672C110.661 39.2461 110.323 41.2695 110.179 43.4375C110.034 45.5573 109.866 47.4844 109.673 49.2188L108.806 56.7344C108.613 57.987 108.276 59.625 107.794 61.6484C107.361 63.6237 107.047 65.623 106.855 67.6465C106.71 69.6217 106.999 71.3079 107.722 72.7051C108.445 74.054 109.914 74.7767 112.13 74.873ZM192.836 74.873C195.052 74.9694 196.691 74.5117 197.75 73.5C198.858 72.4401 199.605 71.0911 199.991 69.4531C200.424 67.7669 200.689 65.9844 200.786 64.1055L222.393 64.0332C222.152 69.8626 220.731 75.0176 218.129 79.498C215.576 83.9785 212.059 87.4714 207.579 89.9766C203.146 92.4818 197.967 93.6621 192.041 93.5176C186.646 93.4212 182.141 92.3613 178.528 90.3379C174.963 88.2663 172.168 85.5202 170.145 82.0996C168.17 78.679 166.845 74.8008 166.17 70.4648C165.544 66.0807 165.496 61.4557 166.026 56.5898L167.11 49.1465C167.736 44.1361 168.868 39.3665 170.506 34.8379C172.192 30.3092 174.457 26.3346 177.299 22.9141C180.142 19.4935 183.635 16.8438 187.778 14.9648C191.921 13.0378 196.811 12.1706 202.448 12.3633C208.663 12.5078 213.601 14.0254 217.262 16.916C220.972 19.7585 223.573 23.5404 225.067 28.2617C226.56 32.9349 227.138 38.1139 226.801 43.7988L205.049 43.7266C205.29 42.0404 205.483 40.2337 205.627 38.3066C205.82 36.3796 205.579 34.7174 204.905 33.3203C204.23 31.9232 202.713 31.1764 200.352 31.0801C197.847 30.9355 195.944 31.4655 194.643 32.6699C193.342 33.8743 192.427 35.4401 191.897 37.3672C191.367 39.2461 191.03 41.2695 190.885 43.4375C190.741 45.5573 190.572 47.4844 190.379 49.2188L189.512 56.7344C189.319 57.987 188.982 59.625 188.5 61.6484C188.067 63.6237 187.754 65.623 187.561 67.6465C187.416 69.6217 187.705 71.3079 188.428 72.7051C189.151 74.054 190.62 74.7767 192.836 74.873ZM276.361 93.4453C271.254 93.349 266.75 92.4095 262.847 90.627C258.993 88.8444 255.813 86.3874 253.308 83.2559C250.851 80.0762 249.117 76.3906 248.105 72.1992C247.093 67.9596 246.804 63.3587 247.238 58.3965L248.322 49.8691C248.996 44.5697 250.201 39.6315 251.935 35.0547C253.67 30.4779 256.006 26.4551 258.945 22.9863C261.932 19.5176 265.569 16.8438 269.857 14.9648C274.145 13.0378 279.203 12.1706 285.033 12.3633C290.284 12.5078 294.62 13.6159 298.041 15.6875C301.509 17.7591 304.183 20.5293 306.062 23.998C307.989 27.4668 309.242 31.3691 309.82 35.7051C310.398 40.041 310.422 44.5456 309.892 49.2188L308.23 60.5645H255.332L258.005 45.3164L287.562 45.3887L288.068 42.498C288.309 40.7637 288.477 39.0534 288.574 37.3672C288.67 35.6328 288.333 34.1875 287.562 33.0312C286.839 31.8268 285.37 31.1283 283.154 30.9355C280.456 30.8392 278.384 31.3932 276.939 32.5977C275.494 33.7539 274.41 35.3197 273.687 37.2949C273.013 39.222 272.531 41.3177 272.242 43.582C271.953 45.7982 271.712 47.8939 271.519 49.8691L270.435 58.4688C270.242 60.3958 270.122 62.2988 270.074 64.1777C270.026 66.0085 270.242 67.7188 270.724 69.3086C271.254 70.8503 272.121 72.1029 273.326 73.0664C274.578 73.9818 276.433 74.4876 278.89 74.584C281.877 74.6803 284.696 74.1986 287.345 73.1387C289.995 72.0306 292.38 70.4167 294.5 68.2969L303.027 83.2559C301.052 85.8574 298.546 87.9049 295.511 89.3984C292.524 90.8438 289.345 91.8796 285.972 92.5059C282.648 93.1803 279.444 93.4935 276.361 93.4453ZM363.282 70.1758C363.571 68.7305 363.089 67.4779 361.837 66.418C360.632 65.3581 359.211 64.4186 357.573 63.5996C355.983 62.7806 354.779 62.0339 353.96 61.3594C351.406 60.0586 348.973 58.6615 346.661 57.168C344.397 55.6263 342.397 53.8919 340.663 51.9648C338.929 50.0378 337.58 47.8457 336.616 45.3887C335.652 42.9316 335.267 40.1374 335.46 37.0059C335.604 33.0553 336.52 29.5384 338.206 26.4551C339.892 23.3717 342.108 20.7702 344.854 18.6504C347.649 16.5306 350.756 14.9167 354.177 13.8086C357.645 12.7005 361.259 12.2188 365.016 12.3633C370.075 12.4115 374.604 13.4232 378.602 15.3984C382.649 17.3255 385.829 20.1439 388.141 23.8535C390.454 27.515 391.61 31.9473 391.61 37.1504L368.557 37.0781C368.606 35.7292 368.63 34.4043 368.63 33.1035C368.63 31.7546 368.317 30.6706 367.69 29.8516C367.064 28.9844 365.835 28.5508 364.005 28.5508C362.704 28.599 361.572 28.9844 360.608 29.707C359.645 30.3815 358.874 31.2728 358.296 32.3809C357.718 33.4408 357.308 34.5488 357.067 35.7051C356.826 36.7168 356.85 37.6562 357.139 38.5234C357.477 39.3424 357.934 40.1133 358.513 40.8359C359.139 41.5104 359.837 42.1367 360.608 42.7148C361.427 43.2448 362.246 43.7266 363.065 44.1602C366.968 45.7982 370.629 47.653 374.05 49.7246C377.518 51.748 380.337 54.3255 382.505 57.457C384.673 60.5404 385.684 64.5391 385.54 69.4531C385.347 73.5482 384.311 77.1133 382.432 80.1484C380.602 83.1836 378.169 85.6888 375.134 87.6641C372.147 89.6393 368.846 91.1087 365.233 92.0723C361.62 93.084 357.958 93.5417 354.249 93.4453C349.19 93.349 344.662 92.2168 340.663 90.0488C336.664 87.8809 333.509 84.8698 331.196 81.0156C328.884 77.1615 327.679 72.6569 327.583 67.502L349.046 67.5742C348.998 69.3568 349.094 70.9707 349.335 72.416C349.576 73.8613 350.154 75.0176 351.069 75.8848C352.033 76.752 353.55 77.1855 355.622 77.1855C357.115 77.1374 358.368 76.8242 359.38 76.2461C360.391 75.668 361.21 74.873 361.837 73.8613C362.511 72.8014 362.993 71.5729 363.282 70.1758ZM443.121 70.1758C443.41 68.7305 442.928 67.4779 441.676 66.418C440.471 65.3581 439.05 64.4186 437.412 63.5996C435.822 62.7806 434.618 62.0339 433.799 61.3594C431.245 60.0586 428.812 58.6615 426.5 57.168C424.236 55.6263 422.236 53.8919 420.502 51.9648C418.768 50.0378 417.419 47.8457 416.455 45.3887C415.492 42.9316 415.106 40.1374 415.299 37.0059C415.443 33.0553 416.359 29.5384 418.045 26.4551C419.731 23.3717 421.947 20.7702 424.693 18.6504C427.488 16.5306 430.595 14.9167 434.016 13.8086C437.484 12.7005 441.098 12.2188 444.855 12.3633C449.914 12.4115 454.443 13.4232 458.441 15.3984C462.488 17.3255 465.668 20.1439 467.98 23.8535C470.293 27.515 471.449 31.9473 471.449 37.1504L448.396 37.0781C448.445 35.7292 448.469 34.4043 448.469 33.1035C448.469 31.7546 448.156 30.6706 447.529 29.8516C446.903 28.9844 445.674 28.5508 443.844 28.5508C442.543 28.599 441.411 28.9844 440.447 29.707C439.484 30.3815 438.713 31.2728 438.135 32.3809C437.557 33.4408 437.147 34.5488 436.906 35.7051C436.665 36.7168 436.689 37.6562 436.979 38.5234C437.316 39.3424 437.773 40.1133 438.352 40.8359C438.978 41.5104 439.676 42.1367 440.447 42.7148C441.266 43.2448 442.085 43.7266 442.904 44.1602C446.807 45.7982 450.468 47.653 453.889 49.7246C457.357 51.748 460.176 54.3255 462.344 57.457C464.512 60.5404 465.523 64.5391 465.379 69.4531C465.186 73.5482 464.15 77.1133 462.271 80.1484C460.441 83.1836 458.008 85.6888 454.973 87.6641C451.986 89.6393 448.686 91.1087 445.072 92.0723C441.459 93.084 437.798 93.5417 434.088 93.4453C429.029 93.349 424.501 92.2168 420.502 90.0488C416.503 87.8809 413.348 84.8698 411.035 81.0156C408.723 77.1615 407.518 72.6569 407.422 67.502L428.885 67.5742C428.837 69.3568 428.933 70.9707 429.174 72.416C429.415 73.8613 429.993 75.0176 430.908 75.8848C431.872 76.752 433.389 77.1855 435.461 77.1855C436.954 77.1374 438.207 76.8242 439.219 76.2461C440.23 75.668 441.049 74.873 441.676 73.8613C442.35 72.8014 442.832 71.5729 443.121 70.1758Z" fill="#222222"/>
</svg>
